<mxfile host="app.diagrams.net" modified="2024-06-06T02:45:44.553Z" agent="Mozilla/5.0 (Macintosh; Intel Mac OS X 10_15_7) AppleWebKit/537.36 (KHTML, like Gecko) Chrome/125.0.0.0 Safari/537.36 Edg/125.0.0.0" etag="kj6VBgR6Zhs-5-UcFLXC" version="24.4.13" type="device">
  <diagram id="C5RBs43oDa-KdzZeNtuy" name="Page-1">
    <mxGraphModel dx="2102" dy="947" grid="1" gridSize="10" guides="1" tooltips="1" connect="1" arrows="1" fold="1" page="1" pageScale="1" pageWidth="827" pageHeight="1169" math="0" shadow="0">
      <root>
        <mxCell id="WIyWlLk6GJQsqaUBKTNV-0" />
        <mxCell id="WIyWlLk6GJQsqaUBKTNV-1" parent="WIyWlLk6GJQsqaUBKTNV-0" />
        <mxCell id="8Imo_MOEr16DwkGvXReS-2" value="" style="edgeStyle=orthogonalEdgeStyle;rounded=0;orthogonalLoop=1;jettySize=auto;html=1;" parent="WIyWlLk6GJQsqaUBKTNV-1" source="8Imo_MOEr16DwkGvXReS-0" target="8Imo_MOEr16DwkGvXReS-1" edge="1">
          <mxGeometry relative="1" as="geometry" />
        </mxCell>
        <mxCell id="8Imo_MOEr16DwkGvXReS-3" value="&lt;font style=&quot;font-size: 12px;&quot;&gt;Trigger charger disabling process&lt;/font&gt;" style="edgeLabel;html=1;align=center;verticalAlign=middle;resizable=0;points=[];" parent="8Imo_MOEr16DwkGvXReS-2" vertex="1" connectable="0">
          <mxGeometry x="-0.0824" y="-2" relative="1" as="geometry">
            <mxPoint as="offset" />
          </mxGeometry>
        </mxCell>
        <mxCell id="wFb0qjTJ1Ypg_C5pO-GM-12" value="" style="edgeStyle=orthogonalEdgeStyle;rounded=0;orthogonalLoop=1;jettySize=auto;html=1;" edge="1" parent="WIyWlLk6GJQsqaUBKTNV-1" source="wFb0qjTJ1Ypg_C5pO-GM-11" target="8Imo_MOEr16DwkGvXReS-0">
          <mxGeometry relative="1" as="geometry" />
        </mxCell>
        <mxCell id="8Imo_MOEr16DwkGvXReS-0" value="ONTAP EMS: &quot;NO_CHARGE&quot;&lt;div&gt;OR&lt;/div&gt;&lt;div&gt;&quot;Battery Current High&quot;&lt;/div&gt;" style="rounded=1;whiteSpace=wrap;html=1;fillColor=#dae8fc;strokeColor=#6c8ebf;strokeWidth=2;" parent="WIyWlLk6GJQsqaUBKTNV-1" vertex="1">
          <mxGeometry x="350" y="40" width="140" height="60" as="geometry" />
        </mxCell>
        <mxCell id="8Imo_MOEr16DwkGvXReS-7" value="" style="edgeStyle=orthogonalEdgeStyle;rounded=0;orthogonalLoop=1;jettySize=auto;html=1;" parent="WIyWlLk6GJQsqaUBKTNV-1" source="8Imo_MOEr16DwkGvXReS-1" target="8Imo_MOEr16DwkGvXReS-6" edge="1">
          <mxGeometry relative="1" as="geometry" />
        </mxCell>
        <mxCell id="8Imo_MOEr16DwkGvXReS-1" value="system battery show" style="whiteSpace=wrap;html=1;rounded=1;fillColor=#dae8fc;strokeColor=#6c8ebf;strokeWidth=2;" parent="WIyWlLk6GJQsqaUBKTNV-1" vertex="1">
          <mxGeometry x="360" y="180" width="120" height="30" as="geometry" />
        </mxCell>
        <mxCell id="8Imo_MOEr16DwkGvXReS-12" value="" style="edgeStyle=orthogonalEdgeStyle;rounded=0;orthogonalLoop=1;jettySize=auto;html=1;" parent="WIyWlLk6GJQsqaUBKTNV-1" source="8Imo_MOEr16DwkGvXReS-6" target="8Imo_MOEr16DwkGvXReS-11" edge="1">
          <mxGeometry relative="1" as="geometry" />
        </mxCell>
        <mxCell id="8Imo_MOEr16DwkGvXReS-13" value="&lt;font style=&quot;font-size: 12px;&quot;&gt;NO&lt;/font&gt;" style="edgeLabel;html=1;align=center;verticalAlign=middle;resizable=0;points=[];" parent="8Imo_MOEr16DwkGvXReS-12" vertex="1" connectable="0">
          <mxGeometry x="-0.2745" y="1" relative="1" as="geometry">
            <mxPoint x="-1" as="offset" />
          </mxGeometry>
        </mxCell>
        <mxCell id="8Imo_MOEr16DwkGvXReS-19" style="edgeStyle=orthogonalEdgeStyle;rounded=0;orthogonalLoop=1;jettySize=auto;html=1;entryX=0.5;entryY=0;entryDx=0;entryDy=0;entryPerimeter=0;" parent="WIyWlLk6GJQsqaUBKTNV-1" source="8Imo_MOEr16DwkGvXReS-6" target="8Imo_MOEr16DwkGvXReS-17" edge="1">
          <mxGeometry relative="1" as="geometry">
            <mxPoint x="420" y="400" as="targetPoint" />
          </mxGeometry>
        </mxCell>
        <mxCell id="8Imo_MOEr16DwkGvXReS-20" value="&lt;font style=&quot;font-size: 12px;&quot;&gt;YES&lt;/font&gt;" style="edgeLabel;html=1;align=center;verticalAlign=middle;resizable=0;points=[];" parent="8Imo_MOEr16DwkGvXReS-19" vertex="1" connectable="0">
          <mxGeometry x="-0.0598" y="-2" relative="1" as="geometry">
            <mxPoint as="offset" />
          </mxGeometry>
        </mxCell>
        <mxCell id="8Imo_MOEr16DwkGvXReS-6" value="if&lt;div&gt;battery present?&lt;/div&gt;" style="rhombus;whiteSpace=wrap;html=1;rounded=1;fillColor=#d5e8d4;strokeColor=#82b366;strokeWidth=2;" parent="WIyWlLk6GJQsqaUBKTNV-1" vertex="1">
          <mxGeometry x="365" y="252.5" width="110" height="105" as="geometry" />
        </mxCell>
        <mxCell id="8Imo_MOEr16DwkGvXReS-11" value="ERROR=&quot;Battery no present&quot;&lt;div&gt;PCM_FAIL = true&lt;/div&gt;" style="whiteSpace=wrap;html=1;rounded=1;fillColor=#dae8fc;strokeColor=#6c8ebf;strokeWidth=2;" parent="WIyWlLk6GJQsqaUBKTNV-1" vertex="1">
          <mxGeometry x="135" y="275" width="170" height="60" as="geometry" />
        </mxCell>
        <mxCell id="8Imo_MOEr16DwkGvXReS-24" value="" style="edgeStyle=orthogonalEdgeStyle;rounded=0;orthogonalLoop=1;jettySize=auto;html=1;" parent="WIyWlLk6GJQsqaUBKTNV-1" source="8Imo_MOEr16DwkGvXReS-17" target="8Imo_MOEr16DwkGvXReS-23" edge="1">
          <mxGeometry relative="1" as="geometry" />
        </mxCell>
        <mxCell id="8Imo_MOEr16DwkGvXReS-17" value="&lt;span style=&quot;&quot;&gt;&lt;span style=&quot;white-space: pre;&quot;&gt;&#x9;&lt;/span&gt;get RelativeCharge&lt;/span&gt;&lt;div style=&quot;&quot;&gt;&lt;span style=&quot;white-space: pre;&quot;&gt;&#x9;&lt;/span&gt;set&amp;nbsp;previousRelativeCharge=RelativeCharge&lt;/div&gt;&lt;div style=&quot;&quot;&gt;&lt;span style=&quot;white-space: pre;&quot;&gt;&#x9;&lt;/span&gt;set PCM_FAIL = false&lt;/div&gt;&lt;div style=&quot;&quot;&gt;&lt;span style=&quot;white-space: pre;&quot;&gt;&#x9;&lt;/span&gt;set ERROR = &quot;&quot;&lt;/div&gt;&lt;div style=&quot;&quot;&gt;&lt;span style=&quot;white-space: pre;&quot;&gt;&#x9;&lt;/span&gt;set LoopCounter = 0&lt;/div&gt;" style="strokeWidth=2;html=1;shape=mxgraph.flowchart.stored_data;whiteSpace=wrap;align=left;fillColor=#ffe6cc;strokeColor=#d79b00;" parent="WIyWlLk6GJQsqaUBKTNV-1" vertex="1">
          <mxGeometry x="270" y="400" width="300" height="90" as="geometry" />
        </mxCell>
        <mxCell id="8Imo_MOEr16DwkGvXReS-29" value="" style="edgeStyle=orthogonalEdgeStyle;rounded=0;orthogonalLoop=1;jettySize=auto;html=1;entryX=0.5;entryY=0;entryDx=0;entryDy=0;" parent="WIyWlLk6GJQsqaUBKTNV-1" source="8Imo_MOEr16DwkGvXReS-23" target="8Imo_MOEr16DwkGvXReS-32" edge="1">
          <mxGeometry relative="1" as="geometry">
            <mxPoint x="420" y="625" as="targetPoint" />
          </mxGeometry>
        </mxCell>
        <mxCell id="8Imo_MOEr16DwkGvXReS-23" value="Wait 60 seconds" style="rounded=1;whiteSpace=wrap;html=1;fillColor=#dae8fc;strokeColor=#6c8ebf;strokeWidth=2;" parent="WIyWlLk6GJQsqaUBKTNV-1" vertex="1">
          <mxGeometry x="360" y="530" width="120" height="30" as="geometry" />
        </mxCell>
        <mxCell id="8Imo_MOEr16DwkGvXReS-34" value="" style="edgeStyle=orthogonalEdgeStyle;rounded=0;orthogonalLoop=1;jettySize=auto;html=1;" parent="WIyWlLk6GJQsqaUBKTNV-1" source="8Imo_MOEr16DwkGvXReS-32" target="8Imo_MOEr16DwkGvXReS-33" edge="1">
          <mxGeometry relative="1" as="geometry" />
        </mxCell>
        <mxCell id="8Imo_MOEr16DwkGvXReS-32" value="LoopCounter++" style="whiteSpace=wrap;html=1;rounded=1;fillColor=#dae8fc;strokeColor=#6c8ebf;strokeWidth=2;" parent="WIyWlLk6GJQsqaUBKTNV-1" vertex="1">
          <mxGeometry x="360" y="585" width="120" height="30" as="geometry" />
        </mxCell>
        <mxCell id="8Imo_MOEr16DwkGvXReS-36" value="" style="edgeStyle=orthogonalEdgeStyle;rounded=0;orthogonalLoop=1;jettySize=auto;html=1;" parent="WIyWlLk6GJQsqaUBKTNV-1" source="8Imo_MOEr16DwkGvXReS-33" target="8Imo_MOEr16DwkGvXReS-35" edge="1">
          <mxGeometry relative="1" as="geometry" />
        </mxCell>
        <mxCell id="8Imo_MOEr16DwkGvXReS-33" value="system battery show" style="whiteSpace=wrap;html=1;rounded=1;fillColor=#dae8fc;strokeColor=#6c8ebf;strokeWidth=2;" parent="WIyWlLk6GJQsqaUBKTNV-1" vertex="1">
          <mxGeometry x="360" y="640" width="120" height="30" as="geometry" />
        </mxCell>
        <mxCell id="8Imo_MOEr16DwkGvXReS-38" value="" style="edgeStyle=orthogonalEdgeStyle;rounded=0;orthogonalLoop=1;jettySize=auto;html=1;entryX=0.5;entryY=0;entryDx=0;entryDy=0;" parent="WIyWlLk6GJQsqaUBKTNV-1" source="8Imo_MOEr16DwkGvXReS-35" target="8Imo_MOEr16DwkGvXReS-39" edge="1">
          <mxGeometry relative="1" as="geometry">
            <mxPoint x="420" y="845" as="targetPoint" />
          </mxGeometry>
        </mxCell>
        <mxCell id="8Imo_MOEr16DwkGvXReS-35" value="&lt;span style=&quot;white-space: pre;&quot;&gt;&#x9;&lt;/span&gt;get Status&lt;div&gt;&lt;span style=&quot;white-space: pre;&quot;&gt;&#x9;&lt;/span&gt;get Current&lt;/div&gt;&lt;div&gt;&lt;span style=&quot;white-space: pre;&quot;&gt;&#x9;&lt;/span&gt;get RelativeCharge&lt;/div&gt;&lt;div&gt;&lt;span style=&quot;white-space: pre;&quot;&gt;&#x9;&lt;/span&gt;get SafetyStatus&lt;/div&gt;" style="strokeWidth=2;html=1;shape=mxgraph.flowchart.stored_data;whiteSpace=wrap;align=left;fillColor=#ffe6cc;strokeColor=#d79b00;" parent="WIyWlLk6GJQsqaUBKTNV-1" vertex="1">
          <mxGeometry x="342.5" y="700" width="155" height="70" as="geometry" />
        </mxCell>
        <mxCell id="8Imo_MOEr16DwkGvXReS-41" value="" style="edgeStyle=orthogonalEdgeStyle;rounded=0;orthogonalLoop=1;jettySize=auto;html=1;entryX=0.5;entryY=0;entryDx=0;entryDy=0;" parent="WIyWlLk6GJQsqaUBKTNV-1" source="8Imo_MOEr16DwkGvXReS-39" target="8Imo_MOEr16DwkGvXReS-55" edge="1">
          <mxGeometry relative="1" as="geometry">
            <mxPoint x="420" y="950" as="targetPoint" />
          </mxGeometry>
        </mxCell>
        <mxCell id="8Imo_MOEr16DwkGvXReS-46" value="&lt;font style=&quot;font-size: 12px;&quot;&gt;YES&lt;/font&gt;" style="edgeLabel;html=1;align=center;verticalAlign=middle;resizable=0;points=[];" parent="8Imo_MOEr16DwkGvXReS-41" vertex="1" connectable="0">
          <mxGeometry x="-0.3833" y="-1" relative="1" as="geometry">
            <mxPoint as="offset" />
          </mxGeometry>
        </mxCell>
        <mxCell id="8Imo_MOEr16DwkGvXReS-79" value="" style="edgeStyle=orthogonalEdgeStyle;rounded=0;orthogonalLoop=1;jettySize=auto;html=1;" parent="WIyWlLk6GJQsqaUBKTNV-1" source="8Imo_MOEr16DwkGvXReS-39" target="8Imo_MOEr16DwkGvXReS-78" edge="1">
          <mxGeometry relative="1" as="geometry" />
        </mxCell>
        <mxCell id="8Imo_MOEr16DwkGvXReS-80" value="&lt;font style=&quot;font-size: 12px;&quot;&gt;NO&lt;/font&gt;" style="edgeLabel;html=1;align=center;verticalAlign=middle;resizable=0;points=[];" parent="8Imo_MOEr16DwkGvXReS-79" vertex="1" connectable="0">
          <mxGeometry x="-0.0278" y="-2" relative="1" as="geometry">
            <mxPoint as="offset" />
          </mxGeometry>
        </mxCell>
        <mxCell id="8Imo_MOEr16DwkGvXReS-39" value="if&lt;div&gt;(Current == 0 mA)&lt;/div&gt;&lt;div&gt;AND&lt;/div&gt;&lt;div&gt;(Status == Ready)&lt;/div&gt;" style="rhombus;whiteSpace=wrap;html=1;rounded=1;fillColor=#d5e8d4;strokeColor=#82b366;strokeWidth=2;" parent="WIyWlLk6GJQsqaUBKTNV-1" vertex="1">
          <mxGeometry x="360" y="800" width="120" height="110" as="geometry" />
        </mxCell>
        <mxCell id="8Imo_MOEr16DwkGvXReS-47" value="ERROR = &quot;BATTERY CHARGE ISSUE: HIGH CURRENT&quot;&lt;div&gt;PCM_FAIL = true&lt;/div&gt;" style="whiteSpace=wrap;html=1;rounded=1;align=center;fillColor=#dae8fc;strokeColor=#6c8ebf;strokeWidth=2;" parent="WIyWlLk6GJQsqaUBKTNV-1" vertex="1">
          <mxGeometry x="550" y="975" width="230" height="60" as="geometry" />
        </mxCell>
        <mxCell id="8Imo_MOEr16DwkGvXReS-57" value="" style="edgeStyle=orthogonalEdgeStyle;rounded=0;orthogonalLoop=1;jettySize=auto;html=1;" parent="WIyWlLk6GJQsqaUBKTNV-1" source="8Imo_MOEr16DwkGvXReS-55" target="8Imo_MOEr16DwkGvXReS-56" edge="1">
          <mxGeometry relative="1" as="geometry" />
        </mxCell>
        <mxCell id="8Imo_MOEr16DwkGvXReS-58" value="&lt;font style=&quot;font-size: 12px;&quot;&gt;NO&lt;/font&gt;" style="edgeLabel;html=1;align=center;verticalAlign=middle;resizable=0;points=[];" parent="8Imo_MOEr16DwkGvXReS-57" vertex="1" connectable="0">
          <mxGeometry x="-0.3" y="-2" relative="1" as="geometry">
            <mxPoint as="offset" />
          </mxGeometry>
        </mxCell>
        <mxCell id="8Imo_MOEr16DwkGvXReS-62" value="" style="edgeStyle=orthogonalEdgeStyle;rounded=0;orthogonalLoop=1;jettySize=auto;html=1;" parent="WIyWlLk6GJQsqaUBKTNV-1" source="8Imo_MOEr16DwkGvXReS-55" target="8Imo_MOEr16DwkGvXReS-47" edge="1">
          <mxGeometry relative="1" as="geometry" />
        </mxCell>
        <mxCell id="8Imo_MOEr16DwkGvXReS-63" value="&lt;font style=&quot;font-size: 12px;&quot;&gt;YES&lt;/font&gt;" style="edgeLabel;html=1;align=center;verticalAlign=middle;resizable=0;points=[];" parent="8Imo_MOEr16DwkGvXReS-62" vertex="1" connectable="0">
          <mxGeometry x="-0.1306" y="1" relative="1" as="geometry">
            <mxPoint as="offset" />
          </mxGeometry>
        </mxCell>
        <mxCell id="8Imo_MOEr16DwkGvXReS-55" value="if&lt;div&gt;(SafetyStatus == 0x0000 0008)&lt;/div&gt;" style="rhombus;whiteSpace=wrap;html=1;rounded=1;fillColor=#d5e8d4;strokeColor=#82b366;strokeWidth=2;" parent="WIyWlLk6GJQsqaUBKTNV-1" vertex="1">
          <mxGeometry x="360" y="950" width="120" height="110" as="geometry" />
        </mxCell>
        <mxCell id="8Imo_MOEr16DwkGvXReS-60" value="" style="edgeStyle=orthogonalEdgeStyle;rounded=0;orthogonalLoop=1;jettySize=auto;html=1;" parent="WIyWlLk6GJQsqaUBKTNV-1" source="8Imo_MOEr16DwkGvXReS-56" target="8Imo_MOEr16DwkGvXReS-59" edge="1">
          <mxGeometry relative="1" as="geometry" />
        </mxCell>
        <mxCell id="8Imo_MOEr16DwkGvXReS-61" value="&lt;font style=&quot;font-size: 12px;&quot;&gt;YES&lt;/font&gt;" style="edgeLabel;html=1;align=center;verticalAlign=middle;resizable=0;points=[];" parent="8Imo_MOEr16DwkGvXReS-60" vertex="1" connectable="0">
          <mxGeometry x="-0.0898" y="1" relative="1" as="geometry">
            <mxPoint as="offset" />
          </mxGeometry>
        </mxCell>
        <mxCell id="8Imo_MOEr16DwkGvXReS-65" value="" style="edgeStyle=orthogonalEdgeStyle;rounded=0;orthogonalLoop=1;jettySize=auto;html=1;entryX=0.5;entryY=0;entryDx=0;entryDy=0;" parent="WIyWlLk6GJQsqaUBKTNV-1" source="8Imo_MOEr16DwkGvXReS-56" target="8Imo_MOEr16DwkGvXReS-66" edge="1">
          <mxGeometry relative="1" as="geometry">
            <mxPoint x="420" y="1314.9999999999998" as="targetPoint" />
          </mxGeometry>
        </mxCell>
        <mxCell id="8Imo_MOEr16DwkGvXReS-67" value="&lt;font style=&quot;font-size: 12px;&quot;&gt;NO&lt;/font&gt;" style="edgeLabel;html=1;align=center;verticalAlign=middle;resizable=0;points=[];" parent="8Imo_MOEr16DwkGvXReS-65" vertex="1" connectable="0">
          <mxGeometry x="-0.4071" relative="1" as="geometry">
            <mxPoint as="offset" />
          </mxGeometry>
        </mxCell>
        <mxCell id="8Imo_MOEr16DwkGvXReS-56" value="if&lt;div&gt;(SafetyStatus == 0x0000 0000)&lt;/div&gt;" style="rhombus;whiteSpace=wrap;html=1;rounded=1;fillColor=#d5e8d4;strokeColor=#82b366;strokeWidth=2;" parent="WIyWlLk6GJQsqaUBKTNV-1" vertex="1">
          <mxGeometry x="360" y="1100" width="120" height="110" as="geometry" />
        </mxCell>
        <mxCell id="wFb0qjTJ1Ypg_C5pO-GM-25" value="" style="edgeStyle=orthogonalEdgeStyle;rounded=0;orthogonalLoop=1;jettySize=auto;html=1;endArrow=none;endFill=0;" edge="1" parent="WIyWlLk6GJQsqaUBKTNV-1" source="8Imo_MOEr16DwkGvXReS-59">
          <mxGeometry relative="1" as="geometry">
            <mxPoint x="665" y="1530" as="targetPoint" />
          </mxGeometry>
        </mxCell>
        <mxCell id="8Imo_MOEr16DwkGvXReS-59" value="ERROR = &quot;BATTERY CHARGE ISSUE: NOT CHARGING&quot;&lt;div&gt;PCM_FAIL = true&lt;/div&gt;" style="whiteSpace=wrap;html=1;rounded=1;align=center;fillColor=#dae8fc;strokeColor=#6c8ebf;strokeWidth=2;" parent="WIyWlLk6GJQsqaUBKTNV-1" vertex="1">
          <mxGeometry x="550" y="1125" width="230" height="60" as="geometry" />
        </mxCell>
        <mxCell id="8Imo_MOEr16DwkGvXReS-77" value="" style="edgeStyle=orthogonalEdgeStyle;rounded=0;orthogonalLoop=1;jettySize=auto;html=1;endArrow=none;endFill=0;" parent="WIyWlLk6GJQsqaUBKTNV-1" source="8Imo_MOEr16DwkGvXReS-66" edge="1">
          <mxGeometry relative="1" as="geometry">
            <mxPoint x="420" y="1530" as="targetPoint" />
          </mxGeometry>
        </mxCell>
        <mxCell id="8Imo_MOEr16DwkGvXReS-66" value="ERROR = &quot;BATTERY CHARGE ISSUE: OTHER&quot;&lt;div&gt;PCM_FAIL = true&lt;/div&gt;" style="whiteSpace=wrap;html=1;rounded=1;align=center;fillColor=#dae8fc;strokeColor=#6c8ebf;strokeWidth=2;" parent="WIyWlLk6GJQsqaUBKTNV-1" vertex="1">
          <mxGeometry x="305" y="1300" width="230" height="60" as="geometry" />
        </mxCell>
        <mxCell id="8Imo_MOEr16DwkGvXReS-82" value="" style="edgeStyle=orthogonalEdgeStyle;rounded=0;orthogonalLoop=1;jettySize=auto;html=1;" parent="WIyWlLk6GJQsqaUBKTNV-1" source="8Imo_MOEr16DwkGvXReS-78" target="8Imo_MOEr16DwkGvXReS-81" edge="1">
          <mxGeometry relative="1" as="geometry" />
        </mxCell>
        <mxCell id="8Imo_MOEr16DwkGvXReS-83" value="&lt;font style=&quot;font-size: 12px;&quot;&gt;YES&lt;/font&gt;" style="edgeLabel;html=1;align=center;verticalAlign=middle;resizable=0;points=[];" parent="8Imo_MOEr16DwkGvXReS-82" vertex="1" connectable="0">
          <mxGeometry x="-0.1028" y="-3" relative="1" as="geometry">
            <mxPoint as="offset" />
          </mxGeometry>
        </mxCell>
        <mxCell id="8Imo_MOEr16DwkGvXReS-78" value="if&lt;div&gt;(Current != 0 mA)&lt;/div&gt;&lt;div&gt;AND&lt;/div&gt;&lt;div&gt;(Status == Charging)&lt;/div&gt;" style="rhombus;whiteSpace=wrap;html=1;rounded=1;fillColor=#d5e8d4;strokeColor=#82b366;strokeWidth=2;" parent="WIyWlLk6GJQsqaUBKTNV-1" vertex="1">
          <mxGeometry x="160" y="800" width="120" height="110" as="geometry" />
        </mxCell>
        <mxCell id="8Imo_MOEr16DwkGvXReS-85" value="" style="edgeStyle=orthogonalEdgeStyle;rounded=0;orthogonalLoop=1;jettySize=auto;html=1;" parent="WIyWlLk6GJQsqaUBKTNV-1" source="8Imo_MOEr16DwkGvXReS-81" target="8Imo_MOEr16DwkGvXReS-84" edge="1">
          <mxGeometry relative="1" as="geometry" />
        </mxCell>
        <mxCell id="8Imo_MOEr16DwkGvXReS-113" value="&lt;font style=&quot;font-size: 12px;&quot;&gt;YES&lt;/font&gt;" style="edgeLabel;html=1;align=center;verticalAlign=middle;resizable=0;points=[];" parent="8Imo_MOEr16DwkGvXReS-85" vertex="1" connectable="0">
          <mxGeometry x="-0.3583" y="-1" relative="1" as="geometry">
            <mxPoint as="offset" />
          </mxGeometry>
        </mxCell>
        <mxCell id="8Imo_MOEr16DwkGvXReS-81" value="if&lt;div&gt;(RelativeCharge &amp;gt;&lt;/div&gt;&lt;div&gt;&lt;span style=&quot;text-align: left;&quot;&gt;previousRelativeCharge)?&lt;/span&gt;&lt;br&gt;&lt;/div&gt;" style="rhombus;whiteSpace=wrap;html=1;rounded=1;fillColor=#d5e8d4;strokeColor=#82b366;strokeWidth=2;" parent="WIyWlLk6GJQsqaUBKTNV-1" vertex="1">
          <mxGeometry x="-40" y="800" width="120" height="110" as="geometry" />
        </mxCell>
        <mxCell id="8Imo_MOEr16DwkGvXReS-87" value="" style="edgeStyle=orthogonalEdgeStyle;rounded=0;orthogonalLoop=1;jettySize=auto;html=1;" parent="WIyWlLk6GJQsqaUBKTNV-1" source="8Imo_MOEr16DwkGvXReS-84" target="8Imo_MOEr16DwkGvXReS-86" edge="1">
          <mxGeometry relative="1" as="geometry" />
        </mxCell>
        <mxCell id="8Imo_MOEr16DwkGvXReS-84" value="Count = 0" style="whiteSpace=wrap;html=1;rounded=1;fillColor=#dae8fc;strokeColor=#6c8ebf;strokeWidth=2;" parent="WIyWlLk6GJQsqaUBKTNV-1" vertex="1">
          <mxGeometry x="-40" y="950" width="120" height="30" as="geometry" />
        </mxCell>
        <mxCell id="8Imo_MOEr16DwkGvXReS-89" value="" style="edgeStyle=orthogonalEdgeStyle;rounded=0;orthogonalLoop=1;jettySize=auto;html=1;" parent="WIyWlLk6GJQsqaUBKTNV-1" source="8Imo_MOEr16DwkGvXReS-86" target="8Imo_MOEr16DwkGvXReS-88" edge="1">
          <mxGeometry relative="1" as="geometry" />
        </mxCell>
        <mxCell id="8Imo_MOEr16DwkGvXReS-86" value="Wait 30 seconds" style="whiteSpace=wrap;html=1;rounded=1;fillColor=#dae8fc;strokeColor=#6c8ebf;strokeWidth=2;" parent="WIyWlLk6GJQsqaUBKTNV-1" vertex="1">
          <mxGeometry x="-40" y="1005" width="120" height="30" as="geometry" />
        </mxCell>
        <mxCell id="8Imo_MOEr16DwkGvXReS-91" value="" style="edgeStyle=orthogonalEdgeStyle;rounded=0;orthogonalLoop=1;jettySize=auto;html=1;" parent="WIyWlLk6GJQsqaUBKTNV-1" source="8Imo_MOEr16DwkGvXReS-88" target="8Imo_MOEr16DwkGvXReS-90" edge="1">
          <mxGeometry relative="1" as="geometry" />
        </mxCell>
        <mxCell id="8Imo_MOEr16DwkGvXReS-88" value="Count++" style="whiteSpace=wrap;html=1;rounded=1;fillColor=#dae8fc;strokeColor=#6c8ebf;strokeWidth=2;" parent="WIyWlLk6GJQsqaUBKTNV-1" vertex="1">
          <mxGeometry x="-40" y="1070" width="120" height="30" as="geometry" />
        </mxCell>
        <mxCell id="8Imo_MOEr16DwkGvXReS-94" value="" style="edgeStyle=orthogonalEdgeStyle;rounded=0;orthogonalLoop=1;jettySize=auto;html=1;" parent="WIyWlLk6GJQsqaUBKTNV-1" source="8Imo_MOEr16DwkGvXReS-90" target="8Imo_MOEr16DwkGvXReS-92" edge="1">
          <mxGeometry relative="1" as="geometry" />
        </mxCell>
        <mxCell id="8Imo_MOEr16DwkGvXReS-90" value="system battery show" style="whiteSpace=wrap;html=1;rounded=1;fillColor=#dae8fc;strokeColor=#6c8ebf;strokeWidth=2;" parent="WIyWlLk6GJQsqaUBKTNV-1" vertex="1">
          <mxGeometry x="-40" y="1120" width="120" height="30" as="geometry" />
        </mxCell>
        <mxCell id="8Imo_MOEr16DwkGvXReS-95" value="" style="edgeStyle=orthogonalEdgeStyle;rounded=0;orthogonalLoop=1;jettySize=auto;html=1;" parent="WIyWlLk6GJQsqaUBKTNV-1" source="8Imo_MOEr16DwkGvXReS-92" target="8Imo_MOEr16DwkGvXReS-93" edge="1">
          <mxGeometry relative="1" as="geometry" />
        </mxCell>
        <mxCell id="8Imo_MOEr16DwkGvXReS-92" value="&lt;div&gt;&lt;span style=&quot;white-space: pre;&quot;&gt;&#x9;&lt;/span&gt;get RelativeCharge&lt;/div&gt;" style="strokeWidth=2;html=1;shape=mxgraph.flowchart.stored_data;whiteSpace=wrap;align=left;fillColor=#ffe6cc;strokeColor=#d79b00;" parent="WIyWlLk6GJQsqaUBKTNV-1" vertex="1">
          <mxGeometry x="-60" y="1185" width="160" height="45" as="geometry" />
        </mxCell>
        <mxCell id="8Imo_MOEr16DwkGvXReS-99" value="" style="edgeStyle=orthogonalEdgeStyle;rounded=0;orthogonalLoop=1;jettySize=auto;html=1;" parent="WIyWlLk6GJQsqaUBKTNV-1" source="8Imo_MOEr16DwkGvXReS-93" target="8Imo_MOEr16DwkGvXReS-98" edge="1">
          <mxGeometry relative="1" as="geometry" />
        </mxCell>
        <mxCell id="8Imo_MOEr16DwkGvXReS-100" value="&lt;font style=&quot;font-size: 12px;&quot;&gt;YES&lt;/font&gt;" style="edgeLabel;html=1;align=center;verticalAlign=middle;resizable=0;points=[];" parent="8Imo_MOEr16DwkGvXReS-99" vertex="1" connectable="0">
          <mxGeometry x="-0.2694" y="1" relative="1" as="geometry">
            <mxPoint as="offset" />
          </mxGeometry>
        </mxCell>
        <mxCell id="8Imo_MOEr16DwkGvXReS-93" value="&lt;div&gt;if&lt;/div&gt;&lt;div&gt;(Count == 5)&lt;br&gt;OR&lt;/div&gt;&lt;div&gt;(RelativeCharge &amp;gt;&lt;/div&gt;&lt;div&gt;&lt;span style=&quot;text-align: left; background-color: initial;&quot;&gt;previousRelativeCharge&lt;/span&gt;)&lt;/div&gt;" style="rhombus;whiteSpace=wrap;html=1;rounded=1;fillColor=#d5e8d4;strokeColor=#82b366;strokeWidth=2;" parent="WIyWlLk6GJQsqaUBKTNV-1" vertex="1">
          <mxGeometry x="-40" y="1270" width="120" height="110" as="geometry" />
        </mxCell>
        <mxCell id="8Imo_MOEr16DwkGvXReS-102" value="" style="edgeStyle=orthogonalEdgeStyle;rounded=0;orthogonalLoop=1;jettySize=auto;html=1;entryX=0.5;entryY=0;entryDx=0;entryDy=0;" parent="WIyWlLk6GJQsqaUBKTNV-1" source="8Imo_MOEr16DwkGvXReS-98" target="8Imo_MOEr16DwkGvXReS-103" edge="1">
          <mxGeometry relative="1" as="geometry">
            <mxPoint x="-180" y="1485" as="targetPoint" />
          </mxGeometry>
        </mxCell>
        <mxCell id="8Imo_MOEr16DwkGvXReS-104" value="&lt;font style=&quot;font-size: 12px;&quot;&gt;YES&lt;/font&gt;" style="edgeLabel;html=1;align=center;verticalAlign=middle;resizable=0;points=[];" parent="8Imo_MOEr16DwkGvXReS-102" vertex="1" connectable="0">
          <mxGeometry x="-0.137" relative="1" as="geometry">
            <mxPoint as="offset" />
          </mxGeometry>
        </mxCell>
        <mxCell id="8Imo_MOEr16DwkGvXReS-106" value="" style="edgeStyle=orthogonalEdgeStyle;rounded=0;orthogonalLoop=1;jettySize=auto;html=1;" parent="WIyWlLk6GJQsqaUBKTNV-1" source="8Imo_MOEr16DwkGvXReS-98" target="8Imo_MOEr16DwkGvXReS-105" edge="1">
          <mxGeometry relative="1" as="geometry" />
        </mxCell>
        <mxCell id="8Imo_MOEr16DwkGvXReS-107" value="&lt;font style=&quot;font-size: 12px;&quot;&gt;NO&lt;/font&gt;" style="edgeLabel;html=1;align=center;verticalAlign=middle;resizable=0;points=[];" parent="8Imo_MOEr16DwkGvXReS-106" vertex="1" connectable="0">
          <mxGeometry x="-0.2085" y="-1" relative="1" as="geometry">
            <mxPoint as="offset" />
          </mxGeometry>
        </mxCell>
        <mxCell id="8Imo_MOEr16DwkGvXReS-98" value="&lt;div&gt;if&lt;/div&gt;&lt;div&gt;(RelativeCharge &amp;gt;&lt;/div&gt;&lt;div&gt;&lt;span style=&quot;text-align: left; background-color: initial;&quot;&gt;previousRelativeCharge&lt;/span&gt;)&lt;/div&gt;" style="rhombus;whiteSpace=wrap;html=1;rounded=1;fillColor=#d5e8d4;strokeColor=#82b366;strokeWidth=2;" parent="WIyWlLk6GJQsqaUBKTNV-1" vertex="1">
          <mxGeometry x="-240" y="1270" width="120" height="110" as="geometry" />
        </mxCell>
        <mxCell id="wFb0qjTJ1Ypg_C5pO-GM-55" value="" style="edgeStyle=orthogonalEdgeStyle;rounded=0;orthogonalLoop=1;jettySize=auto;html=1;endArrow=none;endFill=0;" edge="1" parent="WIyWlLk6GJQsqaUBKTNV-1" source="8Imo_MOEr16DwkGvXReS-103">
          <mxGeometry relative="1" as="geometry">
            <mxPoint x="-340" y="1460" as="targetPoint" />
          </mxGeometry>
        </mxCell>
        <mxCell id="8Imo_MOEr16DwkGvXReS-103" value="ERROR = &quot;BATTERY CHARGE ISSUE: NOT CHARGING&quot;&lt;div&gt;PCM_FAIL = true&lt;/div&gt;" style="whiteSpace=wrap;html=1;rounded=1;align=center;fillColor=#dae8fc;strokeColor=#6c8ebf;strokeWidth=2;" parent="WIyWlLk6GJQsqaUBKTNV-1" vertex="1">
          <mxGeometry x="-295" y="1430" width="230" height="60" as="geometry" />
        </mxCell>
        <mxCell id="wFb0qjTJ1Ypg_C5pO-GM-47" value="" style="edgeStyle=orthogonalEdgeStyle;rounded=0;orthogonalLoop=1;jettySize=auto;html=1;endArrow=none;endFill=0;" edge="1" parent="WIyWlLk6GJQsqaUBKTNV-1" source="8Imo_MOEr16DwkGvXReS-105">
          <mxGeometry relative="1" as="geometry">
            <mxPoint x="-340" y="1150" as="targetPoint" />
          </mxGeometry>
        </mxCell>
        <mxCell id="8Imo_MOEr16DwkGvXReS-105" value="&lt;span style=&quot;text-align: left;&quot;&gt;previousRelativeCharge =&amp;nbsp;&lt;/span&gt;RelativeCharge" style="whiteSpace=wrap;html=1;rounded=1;fillColor=#dae8fc;strokeColor=#6c8ebf;strokeWidth=2;" parent="WIyWlLk6GJQsqaUBKTNV-1" vertex="1">
          <mxGeometry x="-255" y="1120" width="150" height="60" as="geometry" />
        </mxCell>
        <mxCell id="8Imo_MOEr16DwkGvXReS-111" value="" style="edgeStyle=segmentEdgeStyle;endArrow=classic;html=1;curved=0;rounded=1;endSize=8;startSize=8;exitX=1;exitY=0.5;exitDx=0;exitDy=0;" parent="WIyWlLk6GJQsqaUBKTNV-1" edge="1">
          <mxGeometry width="50" height="50" relative="1" as="geometry">
            <mxPoint x="80" y="1322.5" as="sourcePoint" />
            <mxPoint x="80" y="1017.5" as="targetPoint" />
            <Array as="points">
              <mxPoint x="210" y="1322.5" />
              <mxPoint x="210" y="1017.5" />
            </Array>
          </mxGeometry>
        </mxCell>
        <mxCell id="wFb0qjTJ1Ypg_C5pO-GM-56" value="&lt;font style=&quot;font-size: 12px;&quot;&gt;NO&lt;/font&gt;" style="edgeLabel;html=1;align=center;verticalAlign=middle;resizable=0;points=[];" vertex="1" connectable="0" parent="8Imo_MOEr16DwkGvXReS-111">
          <mxGeometry x="0.0307" relative="1" as="geometry">
            <mxPoint as="offset" />
          </mxGeometry>
        </mxCell>
        <mxCell id="wFb0qjTJ1Ypg_C5pO-GM-11" value="START" style="ellipse;whiteSpace=wrap;html=1;rounded=1;fillColor=#f5f5f5;fontColor=#333333;strokeColor=#666666;strokeWidth=2;" vertex="1" parent="WIyWlLk6GJQsqaUBKTNV-1">
          <mxGeometry x="210" y="30" width="80" height="80" as="geometry" />
        </mxCell>
        <mxCell id="wFb0qjTJ1Ypg_C5pO-GM-33" value="" style="edgeStyle=orthogonalEdgeStyle;rounded=0;orthogonalLoop=1;jettySize=auto;html=1;" edge="1" parent="WIyWlLk6GJQsqaUBKTNV-1" source="8Imo_MOEr16DwkGvXReS-68" target="wFb0qjTJ1Ypg_C5pO-GM-0">
          <mxGeometry relative="1" as="geometry" />
        </mxCell>
        <mxCell id="wFb0qjTJ1Ypg_C5pO-GM-34" value="&lt;font style=&quot;font-size: 12px;&quot;&gt;YES&lt;/font&gt;" style="edgeLabel;html=1;align=center;verticalAlign=middle;resizable=0;points=[];" vertex="1" connectable="0" parent="wFb0qjTJ1Ypg_C5pO-GM-33">
          <mxGeometry x="-0.0205" y="1" relative="1" as="geometry">
            <mxPoint as="offset" />
          </mxGeometry>
        </mxCell>
        <mxCell id="8Imo_MOEr16DwkGvXReS-68" value="if&lt;div&gt;(PCM_FAIL == false)&lt;/div&gt;&lt;div&gt;OR&lt;/div&gt;&lt;div&gt;(RelativeCharge == 75%)&lt;/div&gt;&lt;div&gt;OR&lt;/div&gt;&lt;div&gt;(LoopCounter == 10)&lt;/div&gt;" style="rhombus;whiteSpace=wrap;html=1;rounded=1;fillColor=#d5e8d4;strokeColor=#82b366;strokeWidth=2;" parent="WIyWlLk6GJQsqaUBKTNV-1" vertex="1">
          <mxGeometry x="-255" y="600" width="170" height="140" as="geometry" />
        </mxCell>
        <mxCell id="wFb0qjTJ1Ypg_C5pO-GM-35" value="" style="edgeStyle=orthogonalEdgeStyle;rounded=0;orthogonalLoop=1;jettySize=auto;html=1;" edge="1" parent="WIyWlLk6GJQsqaUBKTNV-1" source="wFb0qjTJ1Ypg_C5pO-GM-0" target="wFb0qjTJ1Ypg_C5pO-GM-6">
          <mxGeometry relative="1" as="geometry" />
        </mxCell>
        <mxCell id="wFb0qjTJ1Ypg_C5pO-GM-40" value="&lt;font style=&quot;font-size: 12px;&quot;&gt;YES&lt;/font&gt;" style="edgeLabel;html=1;align=center;verticalAlign=middle;resizable=0;points=[];" vertex="1" connectable="0" parent="wFb0qjTJ1Ypg_C5pO-GM-35">
          <mxGeometry x="-0.0708" y="-2" relative="1" as="geometry">
            <mxPoint as="offset" />
          </mxGeometry>
        </mxCell>
        <mxCell id="wFb0qjTJ1Ypg_C5pO-GM-0" value="if&lt;div&gt;PCM_FAIL == true&lt;/div&gt;" style="rhombus;whiteSpace=wrap;html=1;rounded=1;fillColor=#d5e8d4;strokeColor=#82b366;strokeWidth=2;" vertex="1" parent="WIyWlLk6GJQsqaUBKTNV-1">
          <mxGeometry x="-230" y="420" width="120" height="120" as="geometry" />
        </mxCell>
        <mxCell id="wFb0qjTJ1Ypg_C5pO-GM-3" value="EXIT" style="ellipse;whiteSpace=wrap;html=1;rounded=1;fillColor=#f5f5f5;fontColor=#333333;strokeColor=#666666;strokeWidth=2;" vertex="1" parent="WIyWlLk6GJQsqaUBKTNV-1">
          <mxGeometry x="-210" y="40" width="80" height="80" as="geometry" />
        </mxCell>
        <mxCell id="wFb0qjTJ1Ypg_C5pO-GM-36" value="" style="edgeStyle=orthogonalEdgeStyle;rounded=0;orthogonalLoop=1;jettySize=auto;html=1;" edge="1" parent="WIyWlLk6GJQsqaUBKTNV-1" source="wFb0qjTJ1Ypg_C5pO-GM-6" target="wFb0qjTJ1Ypg_C5pO-GM-9">
          <mxGeometry relative="1" as="geometry" />
        </mxCell>
        <mxCell id="wFb0qjTJ1Ypg_C5pO-GM-6" value="system battery charger disable" style="whiteSpace=wrap;html=1;rounded=1;fillColor=#dae8fc;strokeColor=#6c8ebf;strokeWidth=2;" vertex="1" parent="WIyWlLk6GJQsqaUBKTNV-1">
          <mxGeometry x="-262.5" y="320" width="185" height="50" as="geometry" />
        </mxCell>
        <mxCell id="wFb0qjTJ1Ypg_C5pO-GM-37" value="" style="edgeStyle=orthogonalEdgeStyle;rounded=0;orthogonalLoop=1;jettySize=auto;html=1;" edge="1" parent="WIyWlLk6GJQsqaUBKTNV-1" source="wFb0qjTJ1Ypg_C5pO-GM-9" target="wFb0qjTJ1Ypg_C5pO-GM-3">
          <mxGeometry relative="1" as="geometry" />
        </mxCell>
        <mxCell id="wFb0qjTJ1Ypg_C5pO-GM-9" value="ONTAP triggers EMS:&lt;div&gt;&quot;Battery Charger is Disabled&quot;&lt;/div&gt;" style="whiteSpace=wrap;html=1;rounded=1;align=center;fillColor=#dae8fc;strokeColor=#6c8ebf;strokeWidth=2;" vertex="1" parent="WIyWlLk6GJQsqaUBKTNV-1">
          <mxGeometry x="-285" y="190" width="230" height="60" as="geometry" />
        </mxCell>
        <mxCell id="wFb0qjTJ1Ypg_C5pO-GM-16" value="" style="edgeStyle=segmentEdgeStyle;endArrow=classic;html=1;curved=0;rounded=1;endSize=8;startSize=8;exitX=1;exitY=0.5;exitDx=0;exitDy=0;strokeColor=default;endFill=1;entryX=0;entryY=0.5;entryDx=0;entryDy=0;" edge="1" parent="WIyWlLk6GJQsqaUBKTNV-1" source="8Imo_MOEr16DwkGvXReS-47" target="8Imo_MOEr16DwkGvXReS-68">
          <mxGeometry width="50" height="50" relative="1" as="geometry">
            <mxPoint x="810" y="1005" as="sourcePoint" />
            <mxPoint x="-340" y="700" as="targetPoint" />
            <Array as="points">
              <mxPoint x="820" y="1005" />
              <mxPoint x="820" y="1530" />
              <mxPoint x="-340" y="1530" />
              <mxPoint x="-340" y="670" />
            </Array>
          </mxGeometry>
        </mxCell>
        <mxCell id="wFb0qjTJ1Ypg_C5pO-GM-30" value="" style="edgeStyle=segmentEdgeStyle;endArrow=classic;html=1;curved=0;rounded=1;endSize=8;startSize=8;exitX=1;exitY=0.5;exitDx=0;exitDy=0;entryX=0;entryY=0.5;entryDx=0;entryDy=0;" edge="1" parent="WIyWlLk6GJQsqaUBKTNV-1">
          <mxGeometry width="50" height="50" relative="1" as="geometry">
            <mxPoint x="-82.49999999999977" y="670" as="sourcePoint" />
            <mxPoint x="362.5" y="545" as="targetPoint" />
            <Array as="points">
              <mxPoint x="72" y="670" />
              <mxPoint x="72" y="545" />
            </Array>
          </mxGeometry>
        </mxCell>
        <mxCell id="wFb0qjTJ1Ypg_C5pO-GM-32" value="&lt;font style=&quot;font-size: 12px;&quot;&gt;NO&lt;/font&gt;" style="edgeLabel;html=1;align=center;verticalAlign=middle;resizable=0;points=[];" vertex="1" connectable="0" parent="wFb0qjTJ1Ypg_C5pO-GM-30">
          <mxGeometry x="-0.271" y="-3" relative="1" as="geometry">
            <mxPoint as="offset" />
          </mxGeometry>
        </mxCell>
        <mxCell id="wFb0qjTJ1Ypg_C5pO-GM-38" value="" style="edgeStyle=segmentEdgeStyle;endArrow=classic;html=1;curved=0;rounded=1;endSize=8;startSize=8;exitX=0;exitY=0.5;exitDx=0;exitDy=0;entryX=0;entryY=0.5;entryDx=0;entryDy=0;" edge="1" parent="WIyWlLk6GJQsqaUBKTNV-1" source="wFb0qjTJ1Ypg_C5pO-GM-0" target="wFb0qjTJ1Ypg_C5pO-GM-3">
          <mxGeometry width="50" height="50" relative="1" as="geometry">
            <mxPoint x="-346" y="510" as="sourcePoint" />
            <mxPoint x="-346" y="70" as="targetPoint" />
            <Array as="points">
              <mxPoint x="-340" y="480" />
              <mxPoint x="-340" y="80" />
            </Array>
          </mxGeometry>
        </mxCell>
        <mxCell id="wFb0qjTJ1Ypg_C5pO-GM-39" value="&lt;font style=&quot;font-size: 12px;&quot;&gt;NO&lt;/font&gt;" style="edgeLabel;html=1;align=center;verticalAlign=middle;resizable=0;points=[];" vertex="1" connectable="0" parent="wFb0qjTJ1Ypg_C5pO-GM-38">
          <mxGeometry x="-0.271" y="-3" relative="1" as="geometry">
            <mxPoint as="offset" />
          </mxGeometry>
        </mxCell>
        <mxCell id="wFb0qjTJ1Ypg_C5pO-GM-41" value="" style="edgeStyle=segmentEdgeStyle;endArrow=classic;html=1;curved=0;rounded=1;endSize=8;startSize=8;entryX=1;entryY=0.5;entryDx=0;entryDy=0;exitX=0;exitY=0.5;exitDx=0;exitDy=0;" edge="1" parent="WIyWlLk6GJQsqaUBKTNV-1" source="8Imo_MOEr16DwkGvXReS-11" target="wFb0qjTJ1Ypg_C5pO-GM-3">
          <mxGeometry width="50" height="50" relative="1" as="geometry">
            <mxPoint x="114" y="450" as="sourcePoint" />
            <mxPoint x="405" y="242.47000000000003" as="targetPoint" />
            <Array as="points">
              <mxPoint x="50" y="305" />
              <mxPoint x="50" y="80" />
            </Array>
          </mxGeometry>
        </mxCell>
        <mxCell id="wFb0qjTJ1Ypg_C5pO-GM-43" value="" style="edgeStyle=segmentEdgeStyle;endArrow=classic;html=1;curved=0;rounded=1;endSize=8;startSize=8;exitX=0;exitY=0.5;exitDx=0;exitDy=0;entryX=0.5;entryY=0;entryDx=0;entryDy=0;" edge="1" parent="WIyWlLk6GJQsqaUBKTNV-1" source="8Imo_MOEr16DwkGvXReS-81" target="8Imo_MOEr16DwkGvXReS-105">
          <mxGeometry width="50" height="50" relative="1" as="geometry">
            <mxPoint x="-130" y="820" as="sourcePoint" />
            <mxPoint x="-190" y="1020" as="targetPoint" />
            <Array as="points">
              <mxPoint x="-180" y="855" />
            </Array>
          </mxGeometry>
        </mxCell>
        <mxCell id="wFb0qjTJ1Ypg_C5pO-GM-45" value="&lt;font style=&quot;font-size: 12px;&quot;&gt;NO&lt;/font&gt;" style="edgeLabel;html=1;align=center;verticalAlign=middle;resizable=0;points=[];" vertex="1" connectable="0" parent="wFb0qjTJ1Ypg_C5pO-GM-43">
          <mxGeometry x="0.1324" y="-3" relative="1" as="geometry">
            <mxPoint y="-1" as="offset" />
          </mxGeometry>
        </mxCell>
        <mxCell id="wFb0qjTJ1Ypg_C5pO-GM-48" value="" style="edgeStyle=segmentEdgeStyle;endArrow=none;html=1;curved=0;rounded=1;endSize=8;startSize=8;exitX=0.5;exitY=0;exitDx=0;exitDy=0;endFill=0;" edge="1" parent="WIyWlLk6GJQsqaUBKTNV-1" source="8Imo_MOEr16DwkGvXReS-78">
          <mxGeometry width="50" height="50" relative="1" as="geometry">
            <mxPoint x="220" y="722.5" as="sourcePoint" />
            <mxPoint x="-340" y="760" as="targetPoint" />
            <Array as="points">
              <mxPoint x="220" y="760" />
              <mxPoint x="-200" y="760" />
            </Array>
          </mxGeometry>
        </mxCell>
        <mxCell id="wFb0qjTJ1Ypg_C5pO-GM-50" value="&lt;font style=&quot;font-size: 12px;&quot;&gt;NO&lt;/font&gt;" style="edgeLabel;html=1;align=center;verticalAlign=middle;resizable=0;points=[];" vertex="1" connectable="0" parent="wFb0qjTJ1Ypg_C5pO-GM-48">
          <mxGeometry x="-0.3879" y="-2" relative="1" as="geometry">
            <mxPoint as="offset" />
          </mxGeometry>
        </mxCell>
      </root>
    </mxGraphModel>
  </diagram>
</mxfile>
